<svg width="275" height="281" viewBox="0 0 275 281" fill="none" xmlns="http://www.w3.org/2000/svg">
<g filter="url(#filter0_i_6_11)">
<path d="M174.105 196.329L169.201 199.132C164.932 201.571 160.399 203.516 155.689 204.929C149.657 206.738 143.388 207.709 137.101 207.338C134.294 207.172 131.222 206.929 128.25 206.579C120.913 205.716 114.044 202.263 111.526 200.645L108.201 198.719C103.599 196.055 99.3072 192.887 95.4053 189.274L92.2789 186.38C88.5916 182.965 85.4895 178.97 83.0961 174.551C80.8438 170.393 79.247 165.912 78.3621 161.266L77.5395 156.947L77 146.697L77.0748 145.65C77.384 141.322 78.0688 137.028 79.1214 132.817C80.2224 128.413 81.7214 124.118 83.5999 119.985L84.6064 117.771C85.6481 115.479 86.8576 113.268 88.2252 111.154C90.7994 107.176 93.9143 103.575 97.4804 100.455L97.6468 100.309C99.7037 98.5092 101.898 96.8722 104.208 95.4127L110.987 91.1316L115.864 88.5645C119.432 86.6867 123.22 85.2609 127.141 84.32C132.164 83.1144 137.347 82.7186 142.495 83.1476L143.329 83.2171C146.219 83.4579 149.085 83.9324 151.898 84.6358L152.403 84.7619C156.429 85.7685 160.333 87.2127 164.045 89.0687C166.791 90.4417 169.422 92.0348 171.911 93.8323L177.882 98.1447L178.065 98.3052C183.677 103.216 188.686 108.776 192.987 114.868L193.315 115.452C196.303 120.764 198.209 126.617 198.921 132.671L200 140.763V153.171L198.921 162.882L197.925 167.862C197.156 171.709 195.76 175.403 193.795 178.798C191.831 182.19 189.324 185.238 186.374 187.819L185.231 188.819C183.213 190.585 181.041 192.168 178.741 193.548L174.105 196.329Z" fill="#F1CD53"/>
</g>
<path d="M166.947 186.767L162.956 189.054C159.488 191.04 155.804 192.624 151.977 193.775C147.071 195.25 141.973 196.042 136.859 195.739C134.578 195.604 132.082 195.405 129.667 195.121C123.702 194.417 118.117 191.603 116.07 190.284L113.374 188.72C109.627 186.545 106.135 183.961 102.96 181.015L100.428 178.665C97.4261 175.878 94.9014 172.619 92.9544 169.015C91.1244 165.629 89.8272 161.98 89.1086 158.199L88.4386 154.672L88 146.319L88.0609 145.464C88.3122 141.937 88.8688 138.439 89.7244 135.008C90.6197 131.418 91.8389 127.917 93.3669 124.547L94.1852 122.742C95.0314 120.876 96.014 119.075 97.1251 117.354C99.2187 114.111 101.753 111.174 104.655 108.629L104.784 108.515C106.458 107.048 108.243 105.712 110.123 104.522L115.632 101.034L119.6 98.9408C122.499 97.4115 125.577 96.2502 128.763 95.4836C132.848 94.5009 137.064 94.1783 141.25 94.528L141.926 94.5844C144.276 94.7807 146.605 95.1673 148.892 95.7404L149.3 95.8426C152.576 96.6635 155.751 97.8409 158.77 99.354C161.001 100.472 163.139 101.77 165.161 103.234L170.018 106.75L170.163 106.877C174.728 110.882 178.802 115.414 182.298 120.379L182.563 120.851C184.994 125.183 186.544 129.954 187.123 134.888L188 141.483V151.595L187.123 159.509L186.312 163.573C185.687 166.704 184.554 169.712 182.957 172.477C181.359 175.244 179.319 177.73 176.917 179.837L175.994 180.645C174.352 182.086 172.585 183.377 170.713 184.502L166.947 186.767Z" stroke="#F1B253" stroke-width="5.5"/>
<path d="M130.5 76.5L128.814 71.4435C128.273 69.8181 127.886 68.1452 127.66 66.447V66.447C127.224 63.1764 127.39 59.8441 128.145 56.6323V56.6323C128.711 54.2267 129.604 51.9022 130.795 49.7369L134.5 43L140 32.5L144 22.5V22.5C145.33 18.1766 146.243 13.7356 146.725 9.23797L147.235 4.47C147.318 3.69478 148.346 3.4799 148.732 4.15683L151.5 9V9C152.819 11.967 153.5 15.1776 153.5 18.4244V20V20C153.169 24.6387 152.121 29.198 150.394 33.5159L150 34.5L147.208 40.4323C146.405 42.1394 145.782 43.9258 145.35 45.7624V45.7624C144.46 49.5432 144.394 53.4712 145.156 57.2798L146 61.5V61.5C147.658 66.4747 150.015 71.1886 153 75.5V75.5M160.5 77.5L161.026 75.3943C161.668 72.8264 162.839 70.4208 164.464 68.3315V68.3315C165.153 67.4456 165.92 66.6224 166.754 65.8716L168.21 64.5612C169.734 63.1896 171.137 61.6894 172.404 60.0772V60.0772C174.786 57.0457 176.661 53.6487 177.958 50.018L178.202 49.3335C178.291 49.0838 178.65 49.1014 178.715 49.3587L179.701 53.306C179.9 54.099 180 54.9133 180 55.7308V55.7308C180 57.5428 179.508 59.3208 178.575 60.8746L177 63.5L175.384 66.0139C173.484 68.9699 172.243 72.3007 171.746 75.7795V75.7795C171.582 76.9251 171.5 78.0808 171.5 79.2379V81.5M178.5 90L182.14 83.1246C182.711 82.0452 183.406 81.0358 184.21 80.1166V80.1166C185.719 78.3929 187.584 77.0181 189.677 76.0879L191 75.5V75.5C195.322 73.5051 199.835 71.9507 204.469 70.8603L206 70.5L211.945 68.5183C214.974 67.5087 217.892 66.194 220.655 64.5944V64.5944C224.203 62.5403 227.468 60.0319 230.367 57.1329L233.754 53.7464C233.854 53.6455 234.027 53.704 234.046 53.8454L234.276 55.5735C234.75 59.1232 234.241 62.7347 232.806 66.0155V66.0155C231.941 67.9916 230.756 69.8114 229.299 71.4014L228.812 71.9327C226.951 73.9623 224.754 75.6556 222.318 76.938L219.343 78.5037C217.45 79.4999 215.634 80.635 213.909 81.8999L209 85.5L204.383 89.1278C202.801 90.3706 201.389 91.815 200.182 93.4243V93.4243C198.41 95.7861 197.109 98.4661 196.348 101.319L195.5 104.5M200.5 111V111C204.412 108.392 209.009 107 213.711 107H214.5H224.199C227.385 107 230.558 106.575 233.632 105.737L233.811 105.688C233.999 105.637 234.133 105.867 233.995 106.005L233.809 106.191C230.651 109.349 226.768 111.687 222.5 113V113L221.874 113.134C217.659 114.037 213.638 115.685 210 118V118L205 122M209.5 131.5L210.77 131.351C215.543 130.789 220.379 131.18 225 132.5V132.5L226.784 133.095C230.565 134.355 234.093 136.274 237.205 138.764V138.764C239.063 140.251 241.073 141.537 243.201 142.601L245.632 143.816C250.521 146.26 255.723 148.019 261.092 149.041L263.5 149.5L269.772 150.197C270.699 150.3 270.992 151.505 270.216 152.023L265 155.5L262.343 157.018C259.497 158.645 256.276 159.5 252.998 159.5V159.5C250.362 159.5 247.756 158.947 245.347 157.876L240 155.5L236.976 154.337C234.662 153.447 232.285 152.73 229.865 152.192L227.185 151.597C225.4 151.2 223.578 151 221.75 151V151C219.922 151 218.1 151.2 216.315 151.597L210 153M203 167L204.449 167.241C207.433 167.739 210.24 168.992 212.603 170.882V170.882C213.532 171.626 214.384 172.46 215.145 173.374L219 178L224.5 184.5L229.5 189L232.59 191.648C232.731 191.769 232.645 192 232.46 192V192C227.244 192 222.118 190.639 217.589 188.051L217.5 188L212 184.5L210.953 183.872C208.335 182.301 205.481 181.162 202.5 180.5V180.5L196.5 180M192 189L193.779 191.174C195.589 193.386 197.177 195.77 198.522 198.292V198.292C199.838 200.758 200.914 203.345 201.736 206.017L202.5 208.5L203.831 212.228C204.608 214.402 205.136 216.658 205.406 218.951V218.951C205.799 222.294 206.741 225.55 208.194 228.587L209.334 230.97C210.774 233.981 212.534 236.829 214.583 239.464L214.705 239.621C217.225 242.861 220.146 245.766 223.399 248.268L224.271 248.939C224.508 249.121 224.379 249.5 224.08 249.5H215.529C213.866 249.5 212.225 249.113 210.738 248.369V248.369C209.589 247.794 208.552 247.018 207.678 246.076L205.37 243.59C203.466 241.541 201.865 239.23 200.614 236.728L199 233.5L195 224L193.219 220.883C191.746 218.306 189.937 215.937 187.838 213.838V213.838C186.283 212.283 184.578 210.886 182.749 209.666L178 206.5M169.5 210.5L169.846 211.4C171.27 215.102 172 219.034 172 223V223V225.713C172 227.893 172.318 230.061 172.945 232.148V232.148C173.314 233.381 173.789 234.578 174.364 235.729L178.369 243.737C178.419 243.838 178.326 243.95 178.218 243.919L177.293 243.655C175.775 243.222 174.344 242.531 173.06 241.614V241.614C172.025 240.875 171.097 239.996 170.303 239.003L169.895 238.494C168.315 236.519 167.157 234.241 166.491 231.801L166 230L164.5 224V224C163.843 221.373 162.553 218.948 160.742 216.935L159 215M149 215L149.57 216.466C151.481 221.38 151.903 226.747 150.783 231.899V231.899C150.263 234.288 149.42 236.596 148.276 238.757L145.5 244L142 252.5L141.611 253.555C139.553 259.141 138.5 265.047 138.5 271V271V276.667C138.5 276.813 138.341 276.902 138.217 276.826L134.672 274.644C132.92 273.566 131.475 272.056 130.476 270.258V270.258C129.83 269.094 129.382 267.831 129.151 266.52L128.514 262.915C128.172 260.975 128 259.01 128 257.04V256.354C128 252.142 128.639 247.955 129.895 243.935L130.5 242L131.298 238.544C131.764 236.521 132 234.452 132 232.376V232.376C132 230.134 131.725 227.9 131.181 225.724L130.5 223L128 213M104 205.5V206.13C104 208.034 103.735 209.929 103.212 211.76V211.76C102.413 214.555 101.029 217.148 99.1513 219.367L96.5 222.5L94.0871 226.119C92.3865 228.67 91.3133 231.587 90.9551 234.632L90.9025 235.078C90.6368 237.337 90.8217 239.626 91.4465 241.813V241.813C91.4705 241.897 91.576 241.924 91.6378 241.862L96.5 237L99.9484 233.238C101.313 231.749 102.813 230.39 104.429 229.178L104.9 228.825C106.957 227.282 108.795 225.467 110.363 223.428V223.428C112.111 221.156 113.504 218.632 114.495 215.941L116.5 210.5M80.5 185L77.3321 190.28C76.4453 191.758 75.4459 193.165 74.3425 194.489V194.489C72.1275 197.147 69.5141 199.446 66.5951 201.303L60 205.5L54.3221 209.758C52.7771 210.917 51.339 212.212 50.0249 213.627L48.7588 214.99C46.6087 217.306 44.952 220.035 43.8892 223.01V223.01C43.2983 224.665 42.8964 226.381 42.6911 228.126L42.1088 233.075C42.0744 233.368 42.4342 233.535 42.6355 233.319L44.1864 231.657C47.3629 228.254 51.1925 225.526 55.4467 223.635V223.635C57.1461 222.879 58.9036 222.262 60.7021 221.789L67.5 220L75.8639 217.091C77.9486 216.366 79.9498 215.42 81.8332 214.269V214.269C85.8898 211.79 89.3206 208.409 91.8592 204.39L94 201M73.5 162.5L70.9341 164.04C67.6654 166.001 64.1061 167.43 60.389 168.275L57.7014 168.886C55.911 169.293 54.1931 169.971 52.607 170.896V170.896C50.2337 172.28 48.2077 174.188 46.6836 176.475L46.1533 177.27C46.0878 177.368 46.1582 177.5 46.2763 177.5H65.0756C68.3224 177.5 71.533 176.819 74.5 175.5V175.5M68.5 127.5L61.5 130.5L58.712 131.429C55.5911 132.47 52.3229 133 49.0331 133V133C47.3473 133 45.6643 132.861 44.0013 132.584L40.5 132L33.5 130L30.0782 128.778C27.7104 127.932 25.2148 127.5 22.7004 127.5H22.1198C20.7119 127.5 19.3094 127.673 17.9435 128.014V128.014C15.3501 128.662 12.9433 129.906 10.9137 131.645L9.22185 133.096C7.74505 134.361 6.41122 135.785 5.24419 137.341L4.44765 138.403C4.3005 138.599 4.48393 138.871 4.7209 138.808L11.5 137L13.398 136.684C16.1149 136.231 18.887 136.219 21.6077 136.649V136.649C25.1627 137.21 28.5596 138.514 31.5771 140.475L37 144L45.5 149L45.7739 149.114C49.5539 150.689 53.6083 151.5 57.7033 151.5V151.5C59.564 151.5 61.4209 151.333 63.2516 151L66 150.5M72 120L69.3388 117.694C66.1196 114.904 63.1611 111.826 60.5 108.5V108.5L60.4039 108.368C57.844 104.848 54.4078 102.034 50.4561 100.211V100.211C50.3127 100.144 50.3363 99.9327 50.4912 99.9018L51.7097 99.6581C55.4909 98.9018 59.4095 99.2426 63.0034 100.64L63.6229 100.881C65.5247 101.621 67.2743 102.704 68.7842 104.077V104.077C70.8927 105.993 73.4581 107.336 76.2347 107.977L78.5 108.5M83 101L77 95.5V95.5C74.7078 93.2078 73.0653 90.3481 72.2403 87.2132L71 82.5L69 73.5L67.4953 68.3841C66.8328 66.1314 65.9979 63.933 64.998 61.8083V61.8083C63.3395 58.2838 61.2379 54.9855 58.7442 51.9931L57.5 50.5L49.8486 42.3704C49.7037 42.2164 49.7949 41.9631 50.0047 41.9369L54.1274 41.4216C56.3549 41.1431 58.6151 41.2974 60.784 41.8757V41.8757C63.552 42.6139 66.0955 44.0225 68.1898 45.9771L69.253 46.9694C71.3983 48.9717 73.1452 51.362 74.4014 54.014L77 59.5L79.8269 64.8711C81.2723 67.6174 82.976 70.22 84.9148 72.6435V72.6435C86.9664 75.208 89.2711 77.5593 91.7941 79.6617L97 84M109.5 81.5L108.923 80.1154C107.654 77.0686 107 73.8006 107 70.5V70.5V64.5V64.5C107 61.1936 106.405 57.9142 105.244 54.8184L104.235 52.1265C104.165 51.94 104.38 51.7764 104.541 51.8935L106.604 53.3937C108.515 54.7837 110.127 56.5444 111.342 58.5707V58.5707C112.111 59.8517 112.713 61.2253 113.135 62.6585L114.14 66.0759C114.712 68.0202 115.481 69.9011 116.434 71.6893L116.499 71.8102C118.153 74.911 120.355 77.6859 123 80V80" stroke="#F1CD53" stroke-width="7"/>
<defs>
<filter id="filter0_i_6_11" x="77" y="82.98" width="134" height="127.436" filterUnits="userSpaceOnUse" color-interpolation-filters="sRGB">
<feFlood flood-opacity="0" result="BackgroundImageFix"/>
<feBlend mode="normal" in="SourceGraphic" in2="BackgroundImageFix" result="shape"/>
<feColorMatrix in="SourceAlpha" type="matrix" values="0 0 0 0 0 0 0 0 0 0 0 0 0 0 0 0 0 0 127 0" result="hardAlpha"/>
<feOffset dx="11" dy="3"/>
<feGaussianBlur stdDeviation="28"/>
<feComposite in2="hardAlpha" operator="arithmetic" k2="-1" k3="1"/>
<feColorMatrix type="matrix" values="0 0 0 0 0.945098 0 0 0 0 0.697255 0 0 0 0 0.32549 0 0 0 0.53 0"/>
<feBlend mode="normal" in2="shape" result="effect1_innerShadow_6_11"/>
</filter>
</defs>
</svg>
