<svg width="19" height="14" viewBox="0 0 19 14" fill="none" xmlns="http://www.w3.org/2000/svg">
<path d="M5.7 6.78571C7.53766 6.78571 9.025 5.26802 9.025 3.39286C9.025 1.5177 7.53766 0 5.7 0C3.86234 0 2.375 1.5177 2.375 3.39286C2.375 5.26802 3.86234 6.78571 5.7 6.78571ZM7.98 7.7551H7.73359C7.11609 8.05803 6.43031 8.23979 5.7 8.23979C4.96969 8.23979 4.28687 8.05803 3.66641 7.7551H3.42C1.53187 7.7551 0 9.31824 0 11.2449V12.1173C0 12.9201 0.638281 13.5714 1.425 13.5714H9.975C10.7617 13.5714 11.4 12.9201 11.4 12.1173V11.2449C11.4 9.31824 9.86812 7.7551 7.98 7.7551ZM14.25 6.78571C15.8234 6.78571 17.1 5.4831 17.1 3.87755C17.1 2.272 15.8234 0.969388 14.25 0.969388C12.6766 0.969388 11.4 2.272 11.4 3.87755C11.4 5.4831 12.6766 6.78571 14.25 6.78571ZM15.675 7.7551H15.5622C15.1495 7.90051 14.7131 7.99745 14.25 7.99745C13.7869 7.99745 13.3505 7.90051 12.9378 7.7551H12.825C12.2194 7.7551 11.6612 7.93383 11.1714 8.22162C11.8958 9.01833 12.35 10.0756 12.35 11.2449V12.4082C12.35 12.4748 12.3352 12.5384 12.3322 12.602H17.575C18.3617 12.602 19 11.9507 19 11.148C19 9.2728 17.5127 7.7551 15.675 7.7551Z" fill="#4E4E4E"/>
</svg>
