<svg width="17" height="17" viewBox="0 0 17 17" fill="none" xmlns="http://www.w3.org/2000/svg">
<path d="M5.20416 6.1625L5.87651 1.7H2.37961L0.918459 5.525C0.873409 5.661 0.849609 5.8021 0.849609 5.95C0.849609 6.8884 1.82711 7.65 3.03496 7.65C4.14846 7.65 5.06901 7.0006 5.20416 6.1625ZM8.49961 7.65C9.70661 7.65 10.685 6.8884 10.685 5.95C10.685 5.91515 10.6824 5.8803 10.6807 5.84715L10.2481 1.7H6.75116L6.31766 5.84375C6.31565 5.87913 6.31452 5.91456 6.31426 5.95C6.31426 6.8884 7.29261 7.65 8.49961 7.65ZM12.7496 8.5391V11.9H4.24961V8.5442C3.87731 8.6785 3.46761 8.755 3.03496 8.755C2.86921 8.755 2.70856 8.73545 2.54961 8.71335V14.11C2.54961 14.7645 3.08426 15.3 3.73791 15.3H13.2596C13.9141 15.3 14.4496 14.7636 14.4496 14.11V8.7142C14.2889 8.73887 14.1268 8.75278 13.9643 8.75585C13.5498 8.75543 13.1386 8.68206 12.7496 8.5391ZM16.0816 5.525L14.6188 1.7H11.1227L11.7942 6.1557C11.9251 6.9972 12.8457 7.65 13.9643 7.65C15.1713 7.65 16.1496 6.8884 16.1496 5.95C16.1496 5.8021 16.1258 5.661 16.0816 5.525Z" fill="#4E4E4E"/>
</svg>
