<svg width="92" height="34" viewBox="0 0 92 34" fill="none" xmlns="http://www.w3.org/2000/svg">
<g filter="url(#filter0_i_68_7)">
<path d="M21.678 23.6129L21.0922 23.9333C20.5663 24.221 20.0101 24.4497 19.4339 24.6151C18.7039 24.8248 17.9477 24.937 17.1895 24.8944C16.8457 24.8751 16.4686 24.8467 16.1039 24.8056C15.212 24.7051 14.377 24.3034 14.071 24.1151L13.6474 23.8803C13.1008 23.5774 12.5891 23.2154 12.1214 22.8009L11.7145 22.4402C11.2775 22.0528 10.9076 21.5958 10.6201 21.0875C10.3431 20.598 10.146 20.0674 10.0362 19.5158L9.9396 19.0303L9.87402 17.8375L9.88276 17.7205C9.92057 17.2137 10.0042 16.7113 10.1326 16.2195C10.266 15.709 10.447 15.2122 10.6733 14.7356L10.7954 14.4784C10.9242 14.2072 11.0733 13.9461 11.2414 13.6974C11.5524 13.2373 11.9262 12.8229 12.3519 12.4663L12.3883 12.4359C12.6354 12.2289 12.8979 12.0413 13.1737 11.8745L14.0054 11.3717L14.5901 11.0771C15.0294 10.8558 15.4937 10.6883 15.973 10.5782C16.5813 10.4384 17.2074 10.3926 17.8295 10.4422L17.9362 10.4507C18.288 10.4788 18.6371 10.5341 18.9803 10.6162L19.0482 10.6325C19.5322 10.7483 20.0026 10.9151 20.4515 11.1299C20.7877 11.2909 21.1107 11.4782 21.4173 11.6902L22.137 12.1878L22.1698 12.2152C22.845 12.7808 23.4504 13.4249 23.9732 14.1338L24.0187 14.2112C24.378 14.8227 24.608 15.5014 24.6946 16.2054L24.8257 17.147V18.5908L24.6946 19.7208L24.5766 20.2854C24.4811 20.7427 24.3087 21.1805 24.067 21.5803C23.8312 21.9701 23.5327 22.3183 23.1834 22.6108L23.0252 22.7434C22.7833 22.946 22.524 23.1269 22.2504 23.2841L21.678 23.6129Z" fill="#F1CD53"/>
</g>
<path d="M20.8077 22.5002L20.331 22.7616C19.9037 22.9959 19.4517 23.1821 18.9834 23.3169C18.3898 23.4878 17.7748 23.5793 17.158 23.5446C16.8786 23.5289 16.5722 23.5057 16.2759 23.4722C15.5508 23.3904 14.8719 23.0629 14.6231 22.9095L14.2796 22.7186C13.8346 22.4714 13.4181 22.1761 13.0376 21.838L12.708 21.5452C12.3522 21.229 12.0512 20.8562 11.8172 20.4417C11.5922 20.043 11.4321 19.611 11.343 19.162L11.2643 18.7655L11.2109 17.7935L11.2181 17.6979C11.2488 17.285 11.3168 16.8757 11.4212 16.475C11.5296 16.0588 11.6768 15.6538 11.8609 15.2652L11.9602 15.0556C12.0648 14.8348 12.1859 14.6222 12.3225 14.4196C12.5754 14.0445 12.8795 13.7066 13.226 13.4157L13.2549 13.3914C13.4559 13.2227 13.6695 13.0696 13.894 12.9336L14.5698 12.524L15.0455 12.2837C15.4024 12.1035 15.7797 11.967 16.1693 11.8773C16.6639 11.7634 17.1731 11.726 17.6791 11.7665L17.7656 11.7734C18.0516 11.7963 18.3353 11.8414 18.6143 11.9083L18.6693 11.9215C19.063 12.0159 19.4456 12.1519 19.8107 12.327C20.0839 12.4581 20.3463 12.6107 20.5954 12.7834L21.1809 13.1891L21.207 13.2111C21.7563 13.6723 22.2487 14.1973 22.6737 14.775L22.7104 14.8377C23.0027 15.3363 23.1898 15.8896 23.2602 16.4633L23.3668 17.2307V18.4074L23.2602 19.3283L23.1641 19.7891C23.0865 20.1613 22.9466 20.5178 22.7501 20.8433C22.5583 21.1613 22.3153 21.4453 22.031 21.6841L21.9032 21.7914C21.7064 21.9566 21.4954 22.1042 21.2727 22.2325L20.8077 22.5002Z" stroke="#F1B253" stroke-width="2.5"/>
<path d="M16.3771 9.66909L16.1716 9.07881C16.1062 8.89097 16.0594 8.69715 16.032 8.50014V8.50014C15.9789 8.11928 15.9995 7.72907 16.0913 7.35565V7.35565C16.1596 7.07765 16.2672 6.80859 16.4098 6.56037L16.8634 5.77091L17.5319 4.54909L18.0182 3.38545V3.38545C18.1799 2.88247 18.2909 2.3646 18.3497 1.83955L18.4135 1.269C18.4232 1.18223 18.5376 1.15745 18.5824 1.23242L18.9299 1.81455V1.81455C19.09 2.15948 19.173 2.5352 19.173 2.9155V3.09455V3.09455C19.1327 3.63406 19.0059 4.16357 18.7973 4.66275L18.7475 4.78182L18.4064 5.47582C18.3099 5.67197 18.235 5.87797 18.1828 6.09023V6.09023C18.0744 6.53112 18.0664 6.99071 18.1592 7.43513L18.2613 7.92364V7.92364C18.4628 8.50236 18.7531 9.05617 19.1122 9.55273V9.55273M20.0239 9.78545L20.0853 9.55019C20.165 9.24512 20.3091 8.96066 20.5079 8.71594V8.71594C20.5903 8.6146 20.6814 8.52077 20.7804 8.43555L20.9669 8.27486C21.1483 8.11858 21.3159 7.94695 21.4678 7.76187V7.76187C21.7593 7.40671 21.99 7.00576 22.1506 6.57526L22.1778 6.5024C22.1884 6.47414 22.229 6.47621 22.2366 6.50539L22.358 6.97003C22.3821 7.06236 22.3943 7.15739 22.3943 7.25281V7.25281C22.3943 7.46304 22.3351 7.66902 22.2234 7.84715L22.0296 8.15636L21.828 8.45659C21.6006 8.79523 21.4514 9.18021 21.3912 9.58365V9.58365C21.3711 9.718 21.361 9.85365 21.361 9.98949V10.2509M22.2119 11.24L22.6514 10.4453C22.7229 10.3162 22.8093 10.1959 22.9089 10.0869V10.0869C23.0904 9.88826 23.3126 9.73093 23.5602 9.62556L23.7314 9.55273V9.55273C24.2569 9.32055 24.8038 9.14007 25.3643 9.01383L25.5548 8.97091L26.2864 8.73747C26.6487 8.62186 26.9987 8.47079 27.3313 8.28644V8.28644C27.7659 8.04558 28.1677 7.74968 28.5266 7.40608L28.9312 7.01881C28.9426 7.00793 28.9615 7.0145 28.9636 7.03009L28.9907 7.22399C29.049 7.64292 28.9866 8.0698 28.8108 8.45451V8.45451C28.7074 8.6808 28.5667 8.88813 28.3946 9.06784L28.3229 9.14266C28.0999 9.37554 27.8388 9.56868 27.5509 9.71376L27.1748 9.90321C26.946 10.0185 26.7259 10.1503 26.5162 10.2975L25.9195 10.7164L25.3505 11.1443C25.1633 11.2851 24.9954 11.4497 24.851 11.634V11.634C24.6335 11.9117 24.4728 12.2294 24.3782 12.5692L24.2784 12.9273M24.8862 13.6836V13.6836C25.3625 13.3797 25.9158 13.2182 26.4808 13.2182H26.5881H27.7748C28.1571 13.2182 28.5379 13.1693 28.9078 13.0727L28.9337 13.066C28.9566 13.06 28.9725 13.0884 28.9554 13.1047L28.9457 13.1141C28.5547 13.4883 28.0797 13.7634 27.5605 13.9164V13.9164L27.4765 13.9336C26.9691 14.0377 26.4834 14.2287 26.041 14.4982V14.4982L25.4332 14.9636M25.9803 16.0691L26.1369 16.0515C26.716 15.9862 27.3023 16.0317 27.8644 16.1855V16.1855L28.0911 16.2578C28.5444 16.4024 28.9692 16.6243 29.3469 16.9135V16.9135C29.5736 17.0871 29.8176 17.2367 30.0751 17.3599L30.3786 17.5052C30.9689 17.7877 31.5943 17.9904 32.2381 18.1078L32.5444 18.1636L32.563 18.1656C32.9193 18.2035 33.0288 18.6691 32.7268 18.8618V18.8618L32.4098 19.0352C32.0595 19.2268 31.6666 19.3273 31.2672 19.3273V19.3273C30.9469 19.3273 30.6299 19.2626 30.3352 19.1372L29.6878 18.8618L29.3232 18.7276C29.0399 18.6233 28.7494 18.5394 28.4542 18.4766L28.1306 18.4077C27.9132 18.3615 27.6916 18.3382 27.4693 18.3382V18.3382C27.2471 18.3382 27.0255 18.3615 26.8081 18.4077L26.041 18.5709M25.1901 20.2L25.379 20.2301C25.7337 20.2867 26.0688 20.4307 26.354 20.6491V20.6491C26.4692 20.7374 26.5753 20.837 26.6706 20.9464L27.1351 21.48L27.8036 22.2364L28.4114 22.76L28.7826 23.0646C28.8008 23.0795 28.7903 23.1091 28.7667 23.1091V23.1091C28.1348 23.1091 27.5071 22.9469 26.9527 22.6436V22.6436L26.2842 22.2364L26.1613 22.1658C25.84 21.9813 25.4918 21.848 25.1293 21.7709V21.7709L24.4 21.7127M23.853 22.76L24.0741 23.0187C24.2908 23.2723 24.4818 23.5468 24.6441 23.8381V23.8381C24.8051 24.1272 24.9372 24.4314 25.0385 24.7464L25.1293 25.0291L25.2916 25.4641C25.3857 25.7162 25.4498 25.9786 25.4827 26.2457V26.2457C25.5304 26.6342 25.6442 27.0117 25.8191 27.3618L25.9629 27.6495C26.136 27.9961 26.3466 28.3226 26.5909 28.6233L26.6172 28.6557C26.9207 29.0292 27.2704 29.3626 27.6579 29.6479L27.768 29.729C27.7986 29.7515 27.7827 29.8 27.7447 29.8H26.7071C26.5087 29.8 26.3128 29.7555 26.1338 29.6699V29.6699C25.9921 29.602 25.8635 29.5095 25.754 29.3967L25.4836 29.1179C25.2487 28.8757 25.05 28.6008 24.8938 28.3018L24.7039 27.9382L24.2177 26.8327L24.0065 26.479C23.8239 26.1732 23.601 25.8934 23.3438 25.6471V25.6471C23.1569 25.4683 22.9531 25.3081 22.735 25.169L22.1512 24.7964M21.1179 25.2618L21.1615 25.3703C21.3335 25.7983 21.4218 26.2552 21.4218 26.7164V26.7164V27.0291C21.4218 27.2846 21.4607 27.5386 21.5371 27.7823V27.7823C21.5817 27.9247 21.6389 28.0629 21.708 28.1952L22.1949 29.1274C22.2014 29.1398 22.19 29.154 22.1765 29.1503L22.0591 29.1182C21.8786 29.0688 21.7076 28.9897 21.5532 28.8841V28.8841C21.4257 28.7969 21.3108 28.6926 21.2118 28.5741L21.1693 28.5233C20.9751 28.291 20.8319 28.0205 20.749 27.7293L20.6925 27.5309L20.5101 26.8327V26.8327C20.4304 26.5273 20.2753 26.2468 20.0591 26.0168L19.8416 25.7855M18.626 25.7855L18.6955 25.9567C18.9272 26.527 18.9783 27.1546 18.842 27.7548V27.7548C18.7793 28.0308 18.678 28.2966 18.541 28.5443L18.2005 29.16L17.7751 30.1491L17.7258 30.2772C17.4771 30.9232 17.3496 31.6096 17.3496 32.3018V32.3018V32.9609C17.3496 32.9782 17.3308 32.9889 17.3159 32.9802L16.8733 32.7194C16.6676 32.5982 16.4965 32.426 16.3766 32.2195V32.2195C16.2965 32.0815 16.2408 31.9307 16.2119 31.7738L16.1362 31.3631C16.0943 31.1361 16.0732 30.9057 16.0732 30.6748V30.5972C16.0732 30.1076 16.1507 29.6211 16.3026 29.1556L16.3771 28.9273L16.4743 28.5243C16.5309 28.2895 16.5595 28.0489 16.5595 27.8074V27.8074C16.5595 27.5466 16.5261 27.2868 16.4602 27.0344L16.3771 26.7164L16.0732 25.5527M13.1558 24.68V24.7485C13.1558 24.9731 13.1232 25.1966 13.0589 25.4119V25.4119C12.9626 25.7347 12.7972 26.0325 12.5741 26.2849L12.2442 26.6582L11.9453 27.0873C11.7424 27.3786 11.6137 27.7151 11.5704 28.0674L11.5641 28.1191C11.5316 28.3835 11.5541 28.6518 11.6303 28.9071V28.9071C11.6331 28.9163 11.6446 28.9194 11.6516 28.9127L12.2442 28.3455L12.6619 27.9092C12.8288 27.735 13.0113 27.5765 13.2073 27.4358L13.2743 27.3877C13.5184 27.2125 13.7375 27.0049 13.9256 26.7708V26.7708C14.1405 26.5034 14.3126 26.2043 14.4358 25.8842L14.6753 25.2618M10.2992 22.2945L9.91736 22.9038C9.80743 23.0792 9.68394 23.2457 9.54802 23.4018V23.4018C9.28055 23.7091 8.96735 23.9733 8.61945 24.1852L7.80727 24.68L7.11007 25.1806C6.92692 25.312 6.75585 25.4596 6.59887 25.6214L6.43199 25.7934C6.17655 26.0568 5.97847 26.3702 5.85023 26.7139V26.7139C5.77751 26.9088 5.72796 27.1116 5.70258 27.3181L5.63256 27.8878C5.62826 27.9228 5.67093 27.9433 5.69559 27.918L5.87235 27.7367C6.26694 27.332 6.73796 27.0097 7.25808 26.7884V26.7884C7.46182 26.7017 7.672 26.631 7.88671 26.5769L8.71896 26.3673L9.74522 26.0256C9.99232 25.9433 10.2302 25.8355 10.455 25.704V25.704C10.9523 25.4131 11.3759 25.0117 11.6932 24.5308L11.9403 24.1564M9.44831 19.6764L9.14202 19.8523C8.74081 20.0827 8.30654 20.2501 7.85444 20.3484L7.5194 20.4213C7.30728 20.4675 7.10316 20.5447 6.91363 20.6505V20.6505C6.62179 20.8135 6.37086 21.0407 6.17984 21.315L6.12459 21.3943C6.11652 21.4059 6.12481 21.4218 6.13893 21.4218H8.42839C8.82067 21.4218 9.20891 21.3427 9.56987 21.1891V21.1891M8.84052 15.6036L7.98961 15.9527L7.65342 16.06C7.27205 16.1817 6.87415 16.2436 6.47383 16.2436V16.2436C6.26909 16.2436 6.06466 16.2274 5.86247 16.1952L5.43688 16.1273L4.58597 15.8945L4.17232 15.7531C3.8828 15.6541 3.57893 15.6036 3.27296 15.6036H3.19918C3.03027 15.6036 2.86194 15.6235 2.69767 15.6628V15.6628C2.38042 15.7387 2.08455 15.8857 1.83237 16.0926L1.6399 16.2505C1.45697 16.4006 1.29105 16.5703 1.14511 16.7566L1.05512 16.8715C1.0372 16.8943 1.05845 16.9269 1.08659 16.9197L1.91169 16.7091L2.14541 16.6718C2.47386 16.6194 2.80843 16.618 3.1373 16.6677V16.6677C3.57176 16.7334 3.98826 16.887 4.36134 17.1191L5.01143 17.5236L6.04468 18.1055L6.07307 18.1168C6.53614 18.3015 7.03013 18.3964 7.52868 18.3964V18.3964C7.75451 18.3964 7.97991 18.3769 8.20239 18.3382L8.53662 18.28M9.26597 14.7309L8.93785 14.4587C8.54961 14.1366 8.19153 13.7798 7.86805 13.3927V13.3927V13.3927C7.55149 12.9761 7.13057 12.6417 6.65192 12.4302V12.4302C6.63349 12.4221 6.63656 12.395 6.65635 12.3913L6.80851 12.3621C7.26303 12.2751 7.73271 12.3145 8.16641 12.4759L8.25138 12.5076C8.48019 12.5927 8.69175 12.7185 8.87592 12.8787V12.8787C9.13187 13.1015 9.43956 13.2565 9.77087 13.3297L10.0561 13.3927M10.6031 12.52L9.87377 11.88V11.88C9.59534 11.6135 9.39436 11.2765 9.29219 10.9048L9.14442 10.3673L8.9013 9.32L8.72006 8.73011C8.63842 8.4644 8.53579 8.20559 8.41316 7.95613V7.95613C8.21268 7.54832 7.96009 7.16827 7.66171 6.82552L7.50338 6.64364L6.57747 5.7019C6.55848 5.68258 6.56995 5.64987 6.59685 5.64666L7.09877 5.5866C7.3662 5.5546 7.63724 5.57235 7.8982 5.63897V5.63897C8.23778 5.72565 8.55151 5.89281 8.81286 6.12632L8.92392 6.22555C9.19001 6.46328 9.40808 6.74981 9.56633 7.06962L9.87377 7.69091L10.2131 8.30802C10.3916 8.63282 10.6012 8.93957 10.8389 9.22398V9.22398C11.0863 9.51997 11.3628 9.79028 11.6644 10.0308L12.3049 10.5418M13.8244 10.2509L13.7527 10.0862C13.5996 9.73432 13.5205 9.35467 13.5205 8.97091V8.97091V8.27273V8.27273C13.5205 7.88825 13.4485 7.50717 13.3083 7.14918L13.1847 6.8337C13.1761 6.81158 13.2013 6.79165 13.2208 6.80522L13.4818 6.98694C13.7079 7.14433 13.8998 7.34577 14.0461 7.57917V7.57917C14.141 7.73058 14.2157 7.89379 14.2682 8.06461L14.3863 8.44916C14.4572 8.67999 14.5525 8.90321 14.67 9.11416V9.11416C14.8741 9.48044 15.144 9.80712 15.4655 10.0764V10.0764" stroke="#F1CD53" stroke-width="1.5"/>
<path d="M46.0487 17.7461C46.0987 17.8861 46.1337 18.0461 46.1537 18.2261C46.1837 18.3961 46.1987 18.5711 46.1987 18.7511C46.1987 18.9311 46.1837 19.1111 46.1537 19.2911C46.1337 19.4611 46.1037 19.6111 46.0637 19.7411C45.9037 20.3011 45.5837 20.7711 45.1037 21.1511C44.6237 21.5211 44.0737 21.7911 43.4537 21.9611C42.8437 22.1311 42.2087 22.1911 41.5487 22.1411C40.8987 22.0911 40.3187 21.9261 39.8087 21.6461C39.4887 21.4661 39.2137 21.2461 38.9837 20.9861C38.7537 20.7261 38.5587 20.4361 38.3987 20.1161C38.3387 20.0061 38.2987 19.8811 38.2787 19.7411C38.2687 19.5911 38.2837 19.4511 38.3237 19.3211C38.3637 19.1811 38.4287 19.0611 38.5187 18.9611C38.6087 18.8511 38.7337 18.7761 38.8937 18.7361C38.9937 18.7161 39.1037 18.7061 39.2237 18.7061C39.3537 18.7061 39.4787 18.7261 39.5987 18.7661C39.7187 18.7961 39.8287 18.8511 39.9287 18.9311C40.0287 19.0011 40.1087 19.1011 40.1687 19.2311C40.2787 19.4411 40.4337 19.6361 40.6337 19.8161C40.8437 19.9861 41.0637 20.1261 41.2937 20.2361C41.6237 20.3461 41.9537 20.3911 42.2837 20.3711C42.6237 20.3511 42.9287 20.2761 43.1987 20.1461C43.4787 20.0161 43.7037 19.8411 43.8737 19.6211C44.0437 19.3911 44.1287 19.1311 44.1287 18.8411C44.1287 18.6011 44.0937 18.4061 44.0237 18.2561C43.9537 18.0961 43.8537 17.9661 43.7237 17.8661C43.6037 17.7561 43.4537 17.6661 43.2737 17.5961C43.1037 17.5261 42.9137 17.4661 42.7037 17.4161C42.4637 17.3661 42.2187 17.3311 41.9687 17.3111C41.7287 17.2911 41.4837 17.2661 41.2337 17.2361C40.9837 17.2061 40.7387 17.1661 40.4987 17.1161C40.2587 17.0661 40.0237 16.9911 39.7937 16.8911C39.3337 16.7011 38.9837 16.4111 38.7437 16.0211C38.5037 15.6311 38.3587 15.2111 38.3087 14.7611C38.2687 14.3111 38.3237 13.8661 38.4737 13.4261C38.6237 12.9761 38.8637 12.5911 39.1937 12.2711C39.5137 11.9811 39.8937 11.7761 40.3337 11.6561C40.7837 11.5261 41.2787 11.4511 41.8187 11.4311C42.1187 11.4211 42.4187 11.4311 42.7187 11.4611C43.0287 11.4911 43.3237 11.5411 43.6037 11.6111C43.8937 11.6811 44.1587 11.7711 44.3987 11.8811C44.6487 11.9911 44.8637 12.1211 45.0437 12.2711C45.1737 12.3711 45.3037 12.5061 45.4337 12.6761C45.5637 12.8361 45.6637 13.0111 45.7337 13.2011C45.8037 13.3811 45.8237 13.5561 45.7937 13.7261C45.7737 13.8961 45.6687 14.0411 45.4787 14.1611C45.3187 14.2611 45.1637 14.3061 45.0137 14.2961C44.8737 14.2761 44.7387 14.2311 44.6087 14.1611C44.4787 14.0811 44.3537 13.9911 44.2337 13.8911C44.1137 13.7911 44.0037 13.7011 43.9037 13.6211C43.6337 13.4211 43.2987 13.2861 42.8987 13.2161C42.4987 13.1461 42.1237 13.1311 41.7737 13.1711C41.5537 13.2011 41.3487 13.2511 41.1587 13.3211C40.9687 13.3911 40.8037 13.4861 40.6637 13.6061C40.5337 13.7261 40.4287 13.8761 40.3487 14.0561C40.2787 14.2261 40.2537 14.4211 40.2737 14.6411C40.2837 14.8011 40.3287 14.9361 40.4087 15.0461C40.4987 15.1561 40.6037 15.2461 40.7237 15.3161C40.8537 15.3861 40.9937 15.4411 41.1437 15.4811C41.2937 15.5211 41.4437 15.5511 41.5937 15.5711C42.0437 15.6311 42.4937 15.6761 42.9437 15.7061C43.3937 15.7361 43.8337 15.8361 44.2637 16.0061C44.7037 16.1761 45.0787 16.4061 45.3887 16.6961C45.6987 16.9861 45.9187 17.3361 46.0487 17.7461ZM53.5697 18.5411C53.5497 18.8711 53.5297 19.2061 53.5097 19.5461C53.4897 19.8761 53.4347 20.1961 53.3447 20.5061C53.2647 20.8161 53.1347 21.0961 52.9547 21.3461C52.7847 21.5961 52.5397 21.7961 52.2197 21.9461C51.9397 22.0861 51.6397 22.1811 51.3197 22.2311C50.9997 22.2911 50.6797 22.3161 50.3597 22.3061C50.0397 22.2961 49.7297 22.2461 49.4297 22.1561C49.1297 22.0761 48.8597 21.9611 48.6197 21.8111C48.3797 21.6611 48.1847 21.4661 48.0347 21.2261C47.8847 20.9861 47.7647 20.7261 47.6747 20.4461C47.5947 20.1661 47.5397 19.8761 47.5097 19.5761C47.4797 19.2761 47.4597 18.9961 47.4497 18.7361C47.4097 18.0461 47.4097 17.3661 47.4497 16.6961C47.4497 16.5661 47.4497 16.4211 47.4497 16.2611C47.4497 16.0911 47.4597 15.9261 47.4797 15.7661C47.5097 15.6061 47.5547 15.4611 47.6147 15.3311C47.6747 15.1911 47.7747 15.0861 47.9147 15.0161C48.2147 14.8561 48.4897 14.8461 48.7397 14.9861C48.9997 15.1261 49.1547 15.4161 49.2047 15.8561C49.2347 16.0861 49.2447 16.3411 49.2347 16.6211C49.2347 16.9011 49.2447 17.1561 49.2647 17.3861C49.2747 17.7261 49.2847 18.0961 49.2947 18.4961C49.3047 18.8861 49.3597 19.2361 49.4597 19.5461C49.5697 19.8561 49.7447 20.0911 49.9847 20.2511C50.2347 20.4011 50.6047 20.4061 51.0947 20.2661C51.3247 20.1961 51.4747 20.0211 51.5447 19.7411C51.6247 19.4611 51.6647 19.0461 51.6647 18.4961C51.6647 18.2561 51.6597 17.9911 51.6497 17.7011C51.6397 17.4111 51.6347 17.1261 51.6347 16.8461C51.6347 16.5561 51.6397 16.2911 51.6497 16.0511C51.6697 15.8011 51.6997 15.6111 51.7397 15.4811C51.7897 15.3011 51.8947 15.1661 52.0547 15.0761C52.2147 14.9861 52.3847 14.9411 52.5647 14.9411C52.7447 14.9311 52.9147 14.9661 53.0747 15.0461C53.2347 15.1261 53.3447 15.2561 53.4047 15.4361C53.4647 15.5961 53.5047 15.8011 53.5247 16.0511C53.5547 16.2911 53.5747 16.5561 53.5847 16.8461C53.5947 17.1261 53.5947 17.4161 53.5847 17.7161C53.5847 18.0061 53.5797 18.2811 53.5697 18.5411ZM55.1394 16.7561C55.1394 16.5261 55.1344 16.2811 55.1244 16.0211C55.1244 15.7611 55.1694 15.5261 55.2594 15.3161C55.3394 15.1261 55.4694 14.9911 55.6494 14.9111C55.8394 14.8211 56.0244 14.8011 56.2044 14.8511C56.3844 14.8811 56.5244 14.9361 56.6244 15.0161C56.7244 15.0961 56.7944 15.1911 56.8344 15.3011C56.8844 15.4011 56.9144 15.5211 56.9244 15.6611C56.9344 15.7911 56.9444 15.9211 56.9544 16.0511C57.0544 15.8711 57.1794 15.7261 57.3294 15.6161C57.4794 15.5061 57.6344 15.4161 57.7944 15.3461C57.9544 15.2761 58.1044 15.2261 58.2444 15.1961C58.3944 15.1661 58.5094 15.1511 58.5894 15.1511C58.9694 15.1511 59.3444 15.2361 59.7144 15.4061C60.0944 15.5661 60.4094 15.7961 60.6594 16.0961C60.7994 16.2761 60.9044 16.4661 60.9744 16.6661C61.0544 16.8561 61.1094 17.0561 61.1394 17.2661C61.1794 17.4761 61.2044 17.6911 61.2144 17.9111C61.2244 18.1211 61.2344 18.3361 61.2444 18.5561C61.2944 19.1961 61.2944 19.8311 61.2444 20.4611C61.2344 20.5911 61.2294 20.7411 61.2294 20.9111C61.2294 21.0811 61.2144 21.2511 61.1844 21.4211C61.1644 21.5811 61.1194 21.7261 61.0494 21.8561C60.9894 21.9761 60.8844 22.0511 60.7344 22.0811C60.5244 22.1311 60.3494 22.1411 60.2094 22.1111C60.0794 22.0911 59.9744 22.0461 59.8944 21.9761C59.8144 21.9061 59.7544 21.8161 59.7144 21.7061C59.6744 21.5961 59.6394 21.4711 59.6094 21.3311C59.5894 21.2211 59.5694 21.0961 59.5494 20.9561C59.5394 20.8061 59.5294 20.6561 59.5194 20.5061C59.5194 20.3561 59.5144 20.2111 59.5044 20.0711C59.5044 19.9211 59.5044 19.7861 59.5044 19.6661C59.5044 19.4761 59.4994 19.2661 59.4894 19.0361C59.4794 18.8061 59.4794 18.5911 59.4894 18.3911C59.4894 17.9211 59.3644 17.5661 59.1144 17.3261C58.8744 17.0761 58.5444 16.9711 58.1244 17.0111C57.8044 17.0511 57.5244 17.1811 57.2844 17.4011C57.0444 17.6111 56.9294 17.8861 56.9394 18.2261C56.9394 18.3561 56.9394 18.4761 56.9394 18.5861C56.9394 18.6961 56.9344 18.8061 56.9244 18.9161C56.9244 19.0261 56.9244 19.1461 56.9244 19.2761C56.9244 19.4061 56.9244 19.5511 56.9244 19.7111C56.9244 20.0411 56.9244 20.3911 56.9244 20.7611C56.9244 21.1211 56.8794 21.4161 56.7894 21.6461C56.7094 21.8861 56.5744 22.0511 56.3844 22.1411C56.1944 22.2311 55.9694 22.2061 55.7094 22.0661C55.5994 22.0061 55.5094 21.9261 55.4394 21.8261C55.3794 21.7161 55.3294 21.6011 55.2894 21.4811C55.2594 21.3611 55.2394 21.2411 55.2294 21.1211C55.2194 20.9911 55.2094 20.8711 55.1994 20.7611C55.1694 20.4311 55.1494 20.1261 55.1394 19.8461C55.1394 19.5561 55.1394 19.2461 55.1394 18.9161V16.7561ZM70.2326 21.4511C70.2426 21.5511 70.2326 21.6461 70.2026 21.7361C70.1826 21.7961 70.1526 21.8461 70.1126 21.8861C70.0826 21.9261 70.0426 21.9661 69.9926 22.0061C69.9026 22.0661 69.7926 22.1211 69.6626 22.1711C69.5826 22.1911 69.5026 22.2061 69.4226 22.2161C69.3526 22.2361 69.2776 22.2361 69.1976 22.2161C69.0376 22.2061 68.8976 22.1461 68.7776 22.0361C68.6076 21.8961 68.4676 21.7411 68.3576 21.5711C68.3076 21.4911 68.2526 21.4011 68.1926 21.3011C68.1326 21.2011 68.0776 21.0961 68.0276 20.9861L66.3626 17.8211C66.2826 17.8211 66.2026 17.8261 66.1226 17.8361C66.0426 17.8361 65.9626 17.8411 65.8826 17.8511C65.6726 17.8711 65.4726 17.8761 65.2826 17.8661C65.1026 17.8561 64.9126 17.8561 64.7126 17.8661H64.4276V20.5811C64.4276 20.6611 64.4226 20.7361 64.4126 20.8061C64.4126 20.8761 64.4126 20.9511 64.4126 21.0311C64.4126 21.0811 64.4076 21.1461 64.3976 21.2261C64.3976 21.3061 64.3926 21.3811 64.3826 21.4511C64.3626 21.5611 64.3176 21.6761 64.2476 21.7961C64.1776 21.9061 64.0826 22.0011 63.9626 22.0811C63.7526 22.2111 63.4976 22.2461 63.1976 22.1861C63.0676 22.1561 62.9426 22.1061 62.8226 22.0361C62.7826 22.0061 62.7476 21.9711 62.7176 21.9311C62.6876 21.8811 62.6626 21.8311 62.6426 21.7811C62.6226 21.7311 62.6026 21.6811 62.5826 21.6311C62.5726 21.5711 62.5576 21.5161 62.5376 21.4661C62.5076 21.3661 62.4926 21.2711 62.4926 21.1811V12.6611C62.4926 12.6011 62.4926 12.5411 62.4926 12.4811C62.5026 12.4111 62.5126 12.3511 62.5226 12.3011C62.5326 12.1911 62.5676 12.0811 62.6276 11.9711C62.6576 11.8511 62.7076 11.7661 62.7776 11.7161C62.8376 11.6561 62.9276 11.6061 63.0476 11.5661C63.1776 11.5161 63.3626 11.4961 63.6026 11.5061C64.0526 11.5161 64.4976 11.5211 64.9376 11.5211C65.3776 11.5211 65.8176 11.5311 66.2576 11.5511C66.5476 11.5711 66.8526 11.6061 67.1726 11.6561C67.5026 11.6961 67.8076 11.7711 68.0876 11.8811C68.2676 11.9511 68.4326 12.0211 68.5826 12.0911C68.7726 12.2011 68.9226 12.3061 69.0326 12.4061C69.3826 12.7261 69.6476 13.1111 69.8276 13.5611C70.0076 14.0111 70.0976 14.4661 70.0976 14.9261C70.0976 15.4661 69.9676 15.9611 69.7076 16.4111C69.4576 16.8611 69.0526 17.1961 68.4926 17.4161C68.4726 17.4361 68.4426 17.4511 68.4026 17.4611C68.3726 17.4611 68.3476 17.4661 68.3276 17.4761L69.7076 20.2511L69.8426 20.4911C69.8626 20.5311 69.8876 20.5761 69.9176 20.6261C69.9476 20.6761 69.9726 20.7261 69.9926 20.7761C70.0226 20.8261 70.0476 20.8811 70.0676 20.9411C70.0976 21.0011 70.1276 21.0561 70.1576 21.1061C70.1876 21.2461 70.2126 21.3611 70.2326 21.4511ZM66.4826 16.1111C66.6626 16.1111 66.8326 16.0811 66.9926 16.0211C67.1626 15.9511 67.3126 15.8611 67.4426 15.7511C67.5826 15.6411 67.6976 15.5161 67.7876 15.3761C67.8776 15.2261 67.9276 15.0661 67.9376 14.8961C67.9776 14.3961 67.8476 14.0261 67.5476 13.7861C67.2476 13.5361 66.8526 13.4011 66.3626 13.3811C66.0726 13.3611 65.7526 13.3511 65.4026 13.3511C65.0626 13.3511 64.7376 13.3511 64.4276 13.3511C64.4376 13.7611 64.4376 14.1811 64.4276 14.6111C64.4276 15.0311 64.4276 15.5311 64.4276 16.1111H66.4826ZM72.7144 15.7961C73.0144 15.6461 73.3294 15.5411 73.6594 15.4811C73.9894 15.4111 74.3144 15.3961 74.6344 15.4361C74.9644 15.4661 75.2794 15.5511 75.5794 15.6911C75.8794 15.8211 76.1594 16.0111 76.4194 16.2611C76.6794 16.5211 76.8794 16.8061 77.0194 17.1161C77.1594 17.4261 77.2594 17.7711 77.3194 18.1511C77.3594 18.4111 77.4244 18.6511 77.5144 18.8711C77.6044 19.0911 77.6994 19.3111 77.7994 19.5311C77.9094 19.7511 78.0094 19.9711 78.0994 20.1911C78.1994 20.4111 78.2794 20.6411 78.3394 20.8811C78.3894 21.1111 78.3694 21.3361 78.2794 21.5561C78.1994 21.7661 78.0294 21.8961 77.7694 21.9461C77.6194 21.9761 77.4744 21.9661 77.3344 21.9161C77.2044 21.8561 77.0844 21.7761 76.9744 21.6761C76.8644 21.5661 76.7644 21.4511 76.6744 21.3311C76.5944 21.2011 76.5194 21.0811 76.4494 20.9711C76.2194 21.2711 75.9694 21.5061 75.6994 21.6761C75.4294 21.8361 75.1044 21.9411 74.7244 21.9911C74.4044 22.0311 74.0994 22.0411 73.8094 22.0211C73.5194 22.0011 73.2094 21.9461 72.8794 21.8561C72.4494 21.7461 72.0944 21.5561 71.8144 21.2861C71.5444 21.0061 71.3344 20.6861 71.1844 20.3261C71.0444 19.9561 70.9694 19.5611 70.9594 19.1411C70.9494 18.7211 70.9994 18.3061 71.1094 17.8961C71.2494 17.3561 71.4594 16.9161 71.7394 16.5761C72.0194 16.2361 72.3444 15.9761 72.7144 15.7961ZM73.0894 17.5511C72.9494 17.6911 72.8394 17.8561 72.7594 18.0461C72.6794 18.2361 72.6294 18.4361 72.6094 18.6461C72.5994 18.8561 72.6194 19.0661 72.6694 19.2761C72.7194 19.4861 72.7994 19.6711 72.9094 19.8311C73.0094 19.9711 73.1794 20.0911 73.4194 20.1911C73.6594 20.2811 73.9094 20.3361 74.1694 20.3561C74.4694 20.3761 74.7294 20.2961 74.9494 20.1161C75.1794 19.9361 75.3494 19.7111 75.4594 19.4411C75.5794 19.1611 75.6344 18.8661 75.6244 18.5561C75.6144 18.2361 75.5294 17.9461 75.3694 17.6861C75.2494 17.4961 75.0894 17.3561 74.8894 17.2661C74.6994 17.1761 74.4944 17.1311 74.2744 17.1311C74.0544 17.1211 73.8344 17.1561 73.6144 17.2361C73.4044 17.3061 73.2294 17.4111 73.0894 17.5511ZM85.8717 15.4211C85.9617 15.5611 86.0017 15.7111 85.9917 15.8711C85.9917 16.1011 85.9517 16.3011 85.8717 16.4711C85.8517 16.5211 85.8217 16.5861 85.7817 16.6661C85.7517 16.7461 85.7167 16.8311 85.6767 16.9211C85.6467 17.0111 85.6117 17.0961 85.5717 17.1761C85.5317 17.2561 85.5017 17.3161 85.4817 17.3561L85.4517 17.4311C85.3117 17.7411 85.1767 18.0411 85.0467 18.3311C84.9167 18.6211 84.7717 18.9311 84.6117 19.2611C84.4517 19.5811 84.2967 19.8961 84.1467 20.2061C84.0067 20.5061 83.8667 20.8011 83.7267 21.0911C83.6867 21.1711 83.6517 21.2511 83.6217 21.3311C83.5917 21.4011 83.5517 21.4761 83.5017 21.5561L82.7817 23.1011C82.6517 23.3611 82.5267 23.6161 82.4067 23.8661C82.2967 24.1161 82.1717 24.3661 82.0317 24.6161C82.0017 24.6661 81.9717 24.7111 81.9417 24.7511C81.9217 24.8011 81.9017 24.8511 81.8817 24.9011C81.8117 25.0211 81.7067 25.1361 81.5667 25.2461C81.4367 25.3661 81.2967 25.4311 81.1467 25.4411C80.8767 25.4611 80.6417 25.3811 80.4417 25.2011C80.3217 25.1311 80.2267 25.0311 80.1567 24.9011C80.1167 24.8111 80.0967 24.6961 80.0967 24.5561C80.1067 24.4961 80.1117 24.4361 80.1117 24.3761C80.1217 24.3261 80.1317 24.2761 80.1417 24.2261C80.1617 24.1761 80.1767 24.1261 80.1867 24.0761C80.1967 24.0261 80.2117 23.9861 80.2317 23.9561C80.2617 23.8761 80.2867 23.8361 80.3067 23.8361L81.4017 21.4661C81.3517 21.3561 81.3017 21.2461 81.2517 21.1361C81.2017 21.0161 81.1567 20.9111 81.1167 20.8211C80.9867 20.5111 80.8467 20.1861 80.6967 19.8461C80.5567 19.4961 80.4117 19.1511 80.2617 18.8111C80.1117 18.4611 79.9567 18.1211 79.7967 17.7911C79.6367 17.4611 79.4767 17.1461 79.3167 16.8461C79.2567 16.7461 79.2017 16.6411 79.1517 16.5311C79.1017 16.4111 79.0617 16.2961 79.0317 16.1861C79.0017 16.0661 78.9917 15.9461 79.0017 15.8261C79.0117 15.7061 79.0567 15.5861 79.1367 15.4661C79.2167 15.3161 79.3217 15.2111 79.4517 15.1511C79.5817 15.0811 79.7167 15.0511 79.8567 15.0611C80.0067 15.0611 80.1467 15.0911 80.2767 15.1511C80.4067 15.2111 80.5117 15.2911 80.5917 15.3911C80.7617 15.5711 80.8967 15.7711 80.9967 15.9911C81.0967 16.2111 81.1917 16.4361 81.2817 16.6661C81.4717 17.0661 81.6667 17.4861 81.8667 17.9261C82.0667 18.3661 82.2667 18.7961 82.4667 19.2161L83.2467 17.5661C83.3267 17.4061 83.3967 17.2511 83.4567 17.1011C83.5267 16.9511 83.5967 16.8061 83.6667 16.6661C83.7467 16.4961 83.8217 16.3211 83.8917 16.1411C83.9717 15.9611 84.0617 15.7961 84.1617 15.6461C84.1817 15.6061 84.2017 15.5711 84.2217 15.5411C84.2417 15.5111 84.2617 15.4761 84.2817 15.4361C84.3717 15.3161 84.4517 15.2211 84.5217 15.1511C84.5717 15.1111 84.6117 15.0811 84.6417 15.0611C84.6817 15.0311 84.7267 15.0111 84.7767 15.0011C84.8467 14.9811 84.9117 14.9711 84.9717 14.9711C85.0417 14.9611 85.1067 14.9611 85.1667 14.9711C85.2667 15.0011 85.3867 15.0461 85.5267 15.1061C85.6767 15.1661 85.7917 15.2711 85.8717 15.4211Z" fill="#F1B253"/>
<defs>
<filter id="filter0_i_68_7" x="9.87402" y="10.4229" width="25.9517" height="17.4806" filterUnits="userSpaceOnUse" color-interpolation-filters="sRGB">
<feFlood flood-opacity="0" result="BackgroundImageFix"/>
<feBlend mode="normal" in="SourceGraphic" in2="BackgroundImageFix" result="shape"/>
<feColorMatrix in="SourceAlpha" type="matrix" values="0 0 0 0 0 0 0 0 0 0 0 0 0 0 0 0 0 0 127 0" result="hardAlpha"/>
<feOffset dx="11" dy="3"/>
<feGaussianBlur stdDeviation="28"/>
<feComposite in2="hardAlpha" operator="arithmetic" k2="-1" k3="1"/>
<feColorMatrix type="matrix" values="0 0 0 0 0.945098 0 0 0 0 0.697255 0 0 0 0 0.32549 0 0 0 0.53 0"/>
<feBlend mode="normal" in2="shape" result="effect1_innerShadow_68_7"/>
</filter>
</defs>
</svg>
