<svg width="198" height="76" viewBox="0 0 198 76" fill="none"  xmlns="http://www.w3.org/2000/svg">
<g filter="url(#filter0_i_7_32)">
<path d="M46.5367 52.8788L45.2526 53.6126C44.1349 54.2513 42.9481 54.7605 41.7151 55.1304C40.1357 55.6042 38.4944 55.8585 36.8484 55.7612C36.1135 55.7177 35.3091 55.654 34.531 55.5625C32.6101 55.3365 30.8115 54.4325 30.1524 54.0088L29.2817 53.5047C28.0768 52.8071 26.9532 51.9777 25.9316 51.0318L25.1131 50.2739C24.1477 49.38 23.3355 48.3338 22.7089 47.177C22.1192 46.0883 21.7011 44.9151 21.4694 43.6988L21.254 42.568L21.1128 39.8844L21.1324 39.6103C21.2133 38.4769 21.3926 37.3527 21.6682 36.2503C21.9565 35.0972 22.3489 33.9727 22.8408 32.8907L23.1043 32.311C23.377 31.711 23.6937 31.1319 24.0517 30.5786C24.7257 29.537 25.5413 28.5942 26.4749 27.7772L26.5185 27.7391C27.057 27.2679 27.6314 26.8393 28.2364 26.4571L30.0112 25.3363L31.2881 24.6642C32.2223 24.1725 33.214 23.7992 34.2405 23.5529C35.5557 23.2372 36.9128 23.1336 38.2606 23.2459L38.4789 23.2641C39.2355 23.3272 39.9859 23.4514 40.7225 23.6355L40.8547 23.6686C41.9088 23.9321 42.931 24.3102 43.9028 24.7962C44.6218 25.1556 45.3105 25.5727 45.9621 26.0434L47.5254 27.1724L47.5734 27.2144C49.0428 28.5002 50.3543 29.9559 51.4803 31.551L51.5661 31.7037C52.3486 33.0947 52.8475 34.627 53.0339 36.212L53.3164 38.3307V41.5793L53.0339 44.1217L52.7731 45.4257C52.5717 46.4328 52.2064 47.4 51.6918 48.2889C51.1776 49.1771 50.5212 49.975 49.7488 50.6509L49.4496 50.9127C48.9212 51.3751 48.3525 51.7894 47.7504 52.1506L46.5367 52.8788Z" fill="#F1CD53"/>
</g>
<path d="M44.6625 50.3754L43.6175 50.974C42.7095 51.4941 41.7451 51.9089 40.743 52.2102C39.4586 52.5965 38.1237 52.8037 36.7849 52.7244C36.1876 52.689 35.534 52.637 34.9018 52.5625C33.34 52.3783 31.8778 51.6416 31.342 51.2963L30.636 50.8866C29.6551 50.3173 28.7407 49.6407 27.9095 48.8692L27.2466 48.254C26.4606 47.5245 25.7996 46.6711 25.2898 45.7277C24.8107 44.841 24.4711 43.8858 24.2829 42.8956L24.1075 41.9724L23.9927 39.7853L24.0086 39.5615C24.0744 38.6381 24.2201 37.7221 24.4442 36.8239C24.6786 35.884 24.9978 34.9673 25.3978 34.0851L25.6121 33.6125C25.8336 33.124 26.0909 32.6525 26.3818 32.2018C26.9299 31.3526 27.5934 30.5838 28.3533 29.9173L28.3871 29.8876C28.8253 29.5033 29.2926 29.1537 29.785 28.842L31.2271 27.929L32.2661 27.3808C33.025 26.9804 33.831 26.6764 34.6652 26.4757C35.7347 26.2184 36.8384 26.1339 37.9346 26.2255L38.1115 26.2403C38.7266 26.2916 39.3366 26.3929 39.9354 26.5429L40.0422 26.5697C40.8997 26.7846 41.7311 27.0929 42.5215 27.489C43.1058 27.7819 43.6654 28.1216 44.1948 28.5048L45.4664 29.4254L45.5044 29.4588C46.6997 30.5072 47.7662 31.6939 48.6817 32.9938L48.751 33.1173C49.3875 34.2516 49.7932 35.5007 49.9448 36.7925L50.1745 38.5191V41.1666L49.9448 43.2386L49.7325 44.3028C49.5689 45.1226 49.2722 45.9101 48.8541 46.634C48.4358 47.3584 47.9015 48.0093 47.2727 48.5608L47.0312 48.7726C46.6013 49.1497 46.1385 49.4877 45.6484 49.7824L44.6625 50.3754Z" stroke="#F1B253" stroke-width="2.5"/>
<path d="M35.12 21.5055L34.6787 20.1816C34.5369 19.756 34.4356 19.318 34.3763 18.8734V18.8734C34.2622 18.0171 34.3056 17.1446 34.5035 16.3037V16.3037C34.6517 15.6739 34.8854 15.0653 35.1972 14.4984L36.1673 12.7345L37.6073 9.98545L38.6545 7.36727V7.36727C39.0028 6.23534 39.2417 5.0726 39.3679 3.89503L39.5016 2.64669C39.5234 2.44372 39.7923 2.38746 39.8936 2.5647L40.6182 3.83273V3.83273C40.9634 4.60953 41.1418 5.45014 41.1418 6.30021V6.71273V6.71273C41.0551 7.92722 40.7807 9.12094 40.3285 10.2514L40.2255 10.5091L39.4945 12.0623C39.2842 12.5092 39.1211 12.9769 39.008 13.4578V13.4578C38.7751 14.4477 38.7578 15.4761 38.9572 16.4733L39.1782 17.5782V17.5782C39.6123 18.8807 40.2294 20.1148 41.0109 21.2436V21.2436M42.9745 21.7673L43.1124 21.216C43.2805 20.5436 43.587 19.9138 44.0125 19.3668V19.3668C44.1929 19.1348 44.3935 18.9193 44.6119 18.7227L44.9931 18.3797C45.3921 18.0205 45.7595 17.6278 46.0911 17.2057V17.2057C46.7147 16.412 47.2058 15.5226 47.5453 14.572L47.6093 14.3928C47.6327 14.3274 47.7266 14.332 47.7435 14.3994L48.0018 15.4328C48.0538 15.6405 48.08 15.8537 48.08 16.0677V16.0677C48.08 16.5421 47.9511 17.0076 47.707 17.4144L47.2945 18.1018L46.8714 18.76C46.3739 19.5339 46.049 20.406 45.9189 21.3168V21.3168C45.876 21.6167 45.8545 21.9193 45.8545 22.2223V22.8145M47.6873 25.04L48.6403 23.2399C48.7899 22.9573 48.9718 22.693 49.1824 22.4524V22.4524C49.5773 22.001 50.0657 21.6411 50.6137 21.3976L50.96 21.2436V21.2436C52.0917 20.7213 53.2731 20.3144 54.4863 20.0289L54.8873 19.9345L56.4438 19.4157C57.2368 19.1514 58.0009 18.8072 58.7242 18.3884V18.3884C59.6532 17.8505 60.508 17.1938 61.267 16.4348L62.1537 15.5481C62.1801 15.5217 62.2253 15.5371 62.2302 15.5741L62.2906 16.0265C62.4145 16.9559 62.2813 17.9014 61.9055 18.7604V18.7604C61.6791 19.2778 61.3689 19.7542 60.9873 20.1705L60.8598 20.3097C60.3727 20.841 59.7975 21.2844 59.1596 21.6201L58.3807 22.0301C57.8852 22.2909 57.4096 22.5881 56.958 22.9192L55.6727 23.8618L54.4639 24.8116C54.0497 25.137 53.68 25.5152 53.364 25.9365V25.9365C52.9002 26.5549 52.5595 27.2566 52.3603 28.0034L52.1382 28.8364M53.4473 30.5382V30.5382C54.4716 29.8553 55.6751 29.4909 56.9062 29.4909H57.1127H59.6521C60.4864 29.4909 61.3169 29.3797 62.1218 29.1602L62.1687 29.1474C62.2179 29.134 62.2529 29.1944 62.2169 29.2304L62.1681 29.2791C61.3413 30.1059 60.3248 30.718 59.2073 31.0618V31.0618L59.0435 31.0969C57.9397 31.3334 56.8869 31.7649 55.9345 32.3709V32.3709L54.6255 33.4182M55.8036 35.9055L56.1361 35.8663C57.3857 35.7193 58.652 35.8216 59.8618 36.1673V36.1673L60.3288 36.3229C61.3188 36.6529 62.2425 37.1555 63.0573 37.8073V37.8073C63.5438 38.1965 64.07 38.5332 64.6272 38.8118L65.2637 39.13C66.5436 39.77 67.9057 40.2303 69.3114 40.4981L69.9418 40.6182V40.6182C70.7393 40.7068 71.0022 41.744 70.3345 42.1891V42.1891L69.639 42.5865C68.8938 43.0124 68.0504 43.2364 67.1921 43.2364V43.2364C66.502 43.2364 65.8196 43.0915 65.189 42.8113L63.7891 42.1891L62.9973 41.8846C62.3915 41.6515 61.7691 41.4638 61.1355 41.323L60.4338 41.1671C59.9666 41.0633 59.4895 41.0109 59.0109 41.0109V41.0109C58.5323 41.0109 58.0552 41.0633 57.5881 41.1671L55.9345 41.5345M54.1018 45.2L54.4811 45.2632C55.2625 45.3934 55.9975 45.7216 56.616 46.2165V46.2165C56.8593 46.411 57.0823 46.6297 57.2817 46.869L58.2909 48.08L59.7309 49.7818L61.04 50.96L61.849 51.6534C61.8859 51.685 61.8635 51.7455 61.8149 51.7455V51.7455C60.4493 51.7455 59.1072 51.3891 57.9215 50.7115L57.8982 50.6982L56.4582 49.7818L56.184 49.6173C55.4985 49.206 54.7513 48.908 53.9709 48.7345V48.7345L52.4 48.6036M51.2218 50.96L51.6875 51.5291C52.1614 52.1083 52.5773 52.7325 52.9295 53.3928V53.3928C53.2739 54.0385 53.5556 54.7158 53.7708 55.4152L53.9709 56.0655L54.3195 57.0415C54.5228 57.6108 54.6611 58.2013 54.7317 58.8016V58.8016C54.8347 59.677 55.0813 60.5294 55.4616 61.3245L55.76 61.9485C56.1371 62.7369 56.5979 63.4825 57.1344 64.1723L57.1665 64.2135C57.8262 65.0617 58.591 65.8225 59.4426 66.4776L59.6709 66.6531C59.7329 66.7008 59.6992 66.8 59.6209 66.8H57.3822C56.9467 66.8 56.5172 66.6986 56.1277 66.5038V66.5038C55.8268 66.3534 55.5555 66.1501 55.3266 65.9036L54.7222 65.2527C54.2239 64.7161 53.8046 64.1111 53.4771 63.4561L53.0545 62.6109L52.0073 60.1236L51.5409 59.3074C51.1553 58.6328 50.6816 58.0125 50.1321 57.463V57.463C49.725 57.0559 49.2787 56.6901 48.7997 56.3707L47.5564 55.5418M45.3309 56.5891L45.4215 56.8247C45.7943 57.7939 45.9855 58.8234 45.9855 59.8618V59.8618V60.5721C45.9855 61.1428 46.0688 61.7104 46.2328 62.2571V62.2571C46.3295 62.5796 46.4539 62.8933 46.6045 63.1945L47.6529 65.2912C47.666 65.3175 47.6416 65.347 47.6133 65.3389L47.3712 65.2697C46.9739 65.1562 46.5991 64.9754 46.2629 64.7353V64.7353C45.992 64.5418 45.7491 64.3118 45.5411 64.0518L45.4344 63.9184C45.0207 63.4013 44.7174 62.8049 44.5431 62.1661L44.4145 61.6945L44.0218 60.1236V60.1236C43.8499 59.4359 43.512 58.8009 43.0378 58.274L42.5818 57.7673M39.9636 57.7673L40.1129 58.1511C40.6132 59.4376 40.7236 60.8429 40.4304 62.1917V62.1917C40.2944 62.8173 40.0736 63.4214 39.774 63.9873L39.0473 65.36L38.1309 67.5855L38.0292 67.8616C37.4903 69.3242 37.2145 70.8705 37.2145 72.4291V72.4291V73.9129C37.2145 73.951 37.1728 73.9743 37.1404 73.9543L36.2123 73.3832C35.7536 73.101 35.3754 72.7055 35.1138 72.2347V72.2347C34.9446 71.9301 34.8273 71.5993 34.7667 71.2561L34.6001 70.3123C34.5105 69.8045 34.4655 69.2898 34.4655 68.7741V68.5946C34.4655 67.4918 34.6328 66.3955 34.9617 65.343L35.12 64.8364L35.3288 63.9314C35.451 63.4019 35.5127 62.8602 35.5127 62.3167V62.3167C35.5127 61.7296 35.4407 61.1447 35.2983 60.5751L35.12 59.8618L34.4655 57.2436M28.1818 55.28V55.4449C28.1818 55.9435 28.1123 56.4395 27.9754 56.9189V56.9189C27.7663 57.6506 27.4039 58.3296 26.9123 58.9105L26.2182 59.7309L25.5864 60.6785C25.1412 61.3464 24.8602 62.1101 24.7664 62.9073L24.7527 63.0242C24.6831 63.6155 24.7315 64.2148 24.8951 64.7873V64.7873C24.9014 64.8093 24.929 64.8165 24.9452 64.8003L26.2182 63.5273L27.121 62.5423C27.4784 62.1525 27.8711 61.7967 28.2941 61.4794L28.4174 61.3869C28.956 60.983 29.4372 60.5076 29.8477 59.974V59.974C30.3054 59.379 30.6702 58.7181 30.9297 58.0137L31.4545 56.5891M22.0291 49.9127L21.1997 51.2951C20.9675 51.682 20.7058 52.0505 20.4169 52.3971V52.3971C19.837 53.093 19.1528 53.6948 18.3885 54.1812L16.6618 55.28L15.1752 56.3949C14.7707 56.6983 14.3942 57.0373 14.0502 57.4078L13.7187 57.7648C13.1557 58.371 12.722 59.0854 12.4437 59.8645V59.8645C12.289 60.2977 12.1838 60.747 12.13 61.2038L11.9776 62.4996C11.9686 62.5763 12.0628 62.62 12.1155 62.5635L12.5215 62.1285C13.3532 61.2374 14.3559 60.523 15.4697 60.028V60.028C15.9146 59.8303 16.3748 59.6686 16.8456 59.5447L18.6255 59.0764L20.8153 58.3147C21.3611 58.1248 21.885 57.8771 22.3782 57.5758V57.5758C23.4402 56.9267 24.3385 56.0417 25.0031 54.9893L25.5636 54.1018M20.1964 44.0218L19.5246 44.4249C18.6688 44.9384 17.7369 45.3127 16.7637 45.5339L16.06 45.6938C15.5912 45.8003 15.1415 45.9778 14.7262 46.22V46.22C14.1048 46.5825 13.5744 47.082 13.1754 47.6806L13.0365 47.8889C13.0193 47.9146 13.0378 47.9491 13.0687 47.9491H17.9907C18.8408 47.9491 19.6814 47.7707 20.4582 47.4255V47.4255M18.8873 34.8582L17.0545 35.6436L16.3246 35.887C15.5075 36.1593 14.6518 36.2982 13.7905 36.2982V36.2982C13.3491 36.2982 12.9085 36.2617 12.4731 36.1891L11.5564 36.0364L9.72364 35.5127L8.82775 35.1928C8.20781 34.9714 7.55441 34.8582 6.89611 34.8582H6.74409C6.37548 34.8582 6.00827 34.9034 5.65067 34.9928V34.9928C4.97168 35.1625 4.34153 35.488 3.81013 35.9435L3.36718 36.3232C2.98052 36.6546 2.6313 37.0274 2.32575 37.4348L2.1172 37.7128C2.07868 37.7642 2.1267 37.8353 2.18874 37.8188L3.96364 37.3455L4.46056 37.2626C5.1719 37.1441 5.8977 37.141 6.61002 37.2534V37.2534C7.54078 37.4004 8.43014 37.7418 9.22019 38.2553L10.64 39.1782L12.8655 40.4873L12.9372 40.5172C13.9268 40.9295 14.9884 41.1418 16.0605 41.1418V41.1418C16.5477 41.1418 17.0338 41.098 17.5132 41.0108L18.2327 40.88M19.8036 32.8945L19.1069 32.2907C18.264 31.5602 17.4895 30.7546 16.7927 29.8836V29.8836L16.7676 29.849C16.0973 28.9275 15.1977 28.1908 14.1631 27.7133V27.7133C14.1255 27.696 14.1317 27.6406 14.1722 27.6325L14.4913 27.5687C15.4813 27.3707 16.5072 27.4599 17.4482 27.8258L17.6103 27.8889C18.1083 28.0825 18.5664 28.3661 18.9617 28.7255V28.7255C19.5137 29.2274 20.1854 29.579 20.9124 29.7468L21.5055 29.8836M22.6836 27.92L21.1127 26.48V26.48C20.5126 25.8799 20.0826 25.1311 19.8666 24.3104L19.5418 23.0764L19.0182 20.72L18.6242 19.3806C18.4508 18.7908 18.2322 18.2152 17.9704 17.6589V17.6589C17.5361 16.7361 16.9859 15.8726 16.333 15.0891L16.0073 14.6982L14.004 12.5697C13.9661 12.5294 13.9899 12.4631 14.0449 12.4562L15.1243 12.3213C15.7075 12.2484 16.2992 12.2888 16.8671 12.4402V12.4402C17.5918 12.6334 18.2577 13.0023 18.8061 13.514L19.0844 13.7738C19.6461 14.298 20.1035 14.9239 20.4324 15.6182L21.1127 17.0545L21.8529 18.4608C22.2313 19.1798 22.6774 19.8612 23.185 20.4957V20.4957C23.7221 21.1672 24.3255 21.7828 24.9861 22.3333L26.3491 23.4691M29.6218 22.8145L29.4708 22.452C29.1384 21.6543 28.9673 20.7987 28.9673 19.9345V19.9345V18.3636V18.3636C28.9673 17.498 28.8116 16.6394 28.5076 15.8288L28.2433 15.124C28.225 15.0752 28.2813 15.0324 28.3235 15.063L28.8636 15.4558C29.3639 15.8197 29.7859 16.2807 30.1042 16.8112V16.8112C30.3054 17.1466 30.4631 17.5063 30.5735 17.8815L30.8366 18.7762C30.9864 19.2853 31.1876 19.7777 31.4373 20.2459L31.4542 20.2776C31.8872 21.0894 32.4639 21.8159 33.1564 22.4218V22.4218" stroke="#F1CD53" stroke-width="3"/>
<path d="M98.856 38.688C98.9627 38.9867 99.0373 39.328 99.08 39.712C99.144 40.0747 99.176 40.448 99.176 40.832C99.176 41.216 99.144 41.6 99.08 41.984C99.0373 42.3467 98.9733 42.6667 98.888 42.944C98.5467 44.1387 97.864 45.1413 96.84 45.952C95.816 46.7413 94.6427 47.3173 93.32 47.68C92.0187 48.0427 90.664 48.1707 89.256 48.064C87.8693 47.9573 86.632 47.6053 85.544 47.008C84.8613 46.624 84.2747 46.1547 83.784 45.6C83.2933 45.0453 82.8773 44.4267 82.536 43.744C82.408 43.5093 82.3227 43.2427 82.28 42.944C82.2587 42.624 82.2907 42.3253 82.376 42.048C82.4613 41.7493 82.6 41.4933 82.792 41.28C82.984 41.0453 83.2507 40.8853 83.592 40.8C83.8053 40.7573 84.04 40.736 84.296 40.736C84.5733 40.736 84.84 40.7787 85.096 40.864C85.352 40.928 85.5867 41.0453 85.8 41.216C86.0133 41.3653 86.184 41.5787 86.312 41.856C86.5467 42.304 86.8773 42.72 87.304 43.104C87.752 43.4667 88.2213 43.7653 88.712 44C89.416 44.2347 90.12 44.3307 90.824 44.288C91.5493 44.2453 92.2 44.0853 92.776 43.808C93.3733 43.5307 93.8533 43.1573 94.216 42.688C94.5787 42.1973 94.76 41.6427 94.76 41.024C94.76 40.512 94.6853 40.096 94.536 39.776C94.3867 39.4347 94.1733 39.1573 93.896 38.944C93.64 38.7093 93.32 38.5173 92.936 38.368C92.5733 38.2187 92.168 38.0907 91.72 37.984C91.208 37.8773 90.6853 37.8027 90.152 37.76C89.64 37.7173 89.1173 37.664 88.584 37.6C88.0507 37.536 87.528 37.4507 87.016 37.344C86.504 37.2373 86.0027 37.0773 85.512 36.864C84.5307 36.4587 83.784 35.84 83.272 35.008C82.76 34.176 82.4507 33.28 82.344 32.32C82.2587 31.36 82.376 30.4107 82.696 29.472C83.016 28.512 83.528 27.6907 84.232 27.008C84.9147 26.3893 85.7253 25.952 86.664 25.696C87.624 25.4187 88.68 25.2587 89.832 25.216C90.472 25.1947 91.112 25.216 91.752 25.28C92.4133 25.344 93.0427 25.4507 93.64 25.6C94.2587 25.7493 94.824 25.9413 95.336 26.176C95.8693 26.4107 96.328 26.688 96.712 27.008C96.9893 27.2213 97.2667 27.5093 97.544 27.872C97.8213 28.2133 98.0347 28.5867 98.184 28.992C98.3333 29.376 98.376 29.7493 98.312 30.112C98.2693 30.4747 98.0453 30.784 97.64 31.04C97.2987 31.2533 96.968 31.3493 96.648 31.328C96.3493 31.2853 96.0613 31.1893 95.784 31.04C95.5067 30.8693 95.24 30.6773 94.984 30.464C94.728 30.2507 94.4933 30.0587 94.28 29.888C93.704 29.4613 92.9893 29.1733 92.136 29.024C91.2827 28.8747 90.4827 28.8427 89.736 28.928C89.2667 28.992 88.8293 29.0987 88.424 29.248C88.0187 29.3973 87.6667 29.6 87.368 29.856C87.0907 30.112 86.8667 30.432 86.696 30.816C86.5467 31.1787 86.4933 31.5947 86.536 32.064C86.5573 32.4053 86.6533 32.6933 86.824 32.928C87.016 33.1627 87.24 33.3547 87.496 33.504C87.7733 33.6533 88.072 33.7707 88.392 33.856C88.712 33.9413 89.032 34.0053 89.352 34.048C90.312 34.176 91.272 34.272 92.232 34.336C93.192 34.4 94.1307 34.6133 95.048 34.976C95.9867 35.3387 96.7867 35.8293 97.448 36.448C98.1093 37.0667 98.5787 37.8133 98.856 38.688ZM114.901 40.384C114.858 41.088 114.815 41.8027 114.773 42.528C114.73 43.232 114.613 43.9147 114.421 44.576C114.25 45.2373 113.973 45.8347 113.589 46.368C113.226 46.9013 112.703 47.328 112.021 47.648C111.423 47.9467 110.783 48.1493 110.101 48.256C109.418 48.384 108.735 48.4373 108.053 48.416C107.37 48.3947 106.709 48.288 106.069 48.096C105.429 47.9253 104.853 47.68 104.341 47.36C103.829 47.04 103.413 46.624 103.093 46.112C102.773 45.6 102.517 45.0453 102.325 44.448C102.154 43.8507 102.037 43.232 101.973 42.592C101.909 41.952 101.866 41.3547 101.845 40.8C101.759 39.328 101.759 37.8773 101.845 36.448C101.845 36.1707 101.845 35.8613 101.845 35.52C101.845 35.1573 101.866 34.8053 101.909 34.464C101.973 34.1227 102.069 33.8133 102.197 33.536C102.325 33.2373 102.538 33.0133 102.837 32.864C103.477 32.5227 104.063 32.5013 104.597 32.8C105.151 33.0987 105.482 33.7173 105.589 34.656C105.653 35.1467 105.674 35.6907 105.653 36.288C105.653 36.8853 105.674 37.4293 105.717 37.92C105.738 38.6453 105.759 39.4347 105.781 40.288C105.802 41.12 105.919 41.8667 106.133 42.528C106.367 43.1893 106.741 43.6907 107.253 44.032C107.786 44.352 108.575 44.3627 109.621 44.064C110.111 43.9147 110.431 43.5413 110.581 42.944C110.751 42.3467 110.837 41.4613 110.837 40.288C110.837 39.776 110.826 39.2107 110.805 38.592C110.783 37.9733 110.773 37.3653 110.773 36.768C110.773 36.1493 110.783 35.584 110.805 35.072C110.847 34.5387 110.911 34.1333 110.997 33.856C111.103 33.472 111.327 33.184 111.669 32.992C112.01 32.8 112.373 32.704 112.757 32.704C113.141 32.6827 113.503 32.7573 113.845 32.928C114.186 33.0987 114.421 33.376 114.549 33.76C114.677 34.1013 114.762 34.5387 114.805 35.072C114.869 35.584 114.911 36.1493 114.933 36.768C114.954 37.3653 114.954 37.984 114.933 38.624C114.933 39.2427 114.922 39.8293 114.901 40.384ZM118.25 36.576C118.25 36.0853 118.239 35.5627 118.218 35.008C118.218 34.4533 118.314 33.952 118.506 33.504C118.676 33.0987 118.954 32.8107 119.338 32.64C119.743 32.448 120.138 32.4053 120.522 32.512C120.906 32.576 121.204 32.6933 121.418 32.864C121.631 33.0347 121.78 33.2373 121.866 33.472C121.972 33.6853 122.036 33.9413 122.058 34.24C122.079 34.5173 122.1 34.7947 122.122 35.072C122.335 34.688 122.602 34.3787 122.922 34.144C123.242 33.9093 123.572 33.7173 123.914 33.568C124.255 33.4187 124.575 33.312 124.874 33.248C125.194 33.184 125.439 33.152 125.61 33.152C126.42 33.152 127.22 33.3333 128.01 33.696C128.82 34.0373 129.492 34.528 130.026 35.168C130.324 35.552 130.548 35.9573 130.698 36.384C130.868 36.7893 130.986 37.216 131.05 37.664C131.135 38.112 131.188 38.5707 131.21 39.04C131.231 39.488 131.252 39.9467 131.274 40.416C131.38 41.7813 131.38 43.136 131.274 44.48C131.252 44.7573 131.242 45.0773 131.242 45.44C131.242 45.8027 131.21 46.1653 131.146 46.528C131.103 46.8693 131.007 47.1787 130.858 47.456C130.73 47.712 130.506 47.872 130.186 47.936C129.738 48.0427 129.364 48.064 129.066 48C128.788 47.9573 128.564 47.8613 128.394 47.712C128.223 47.5627 128.095 47.3707 128.01 47.136C127.924 46.9013 127.85 46.6347 127.786 46.336C127.743 46.1013 127.7 45.8347 127.658 45.536C127.636 45.216 127.615 44.896 127.594 44.576C127.594 44.256 127.583 43.9467 127.562 43.648C127.562 43.328 127.562 43.04 127.562 42.784C127.562 42.3787 127.551 41.9307 127.53 41.44C127.508 40.9493 127.508 40.4907 127.53 40.064C127.53 39.0613 127.263 38.304 126.73 37.792C126.218 37.2587 125.514 37.0347 124.618 37.12C123.935 37.2053 123.338 37.4827 122.826 37.952C122.314 38.4 122.068 38.9867 122.09 39.712C122.09 39.9893 122.09 40.2453 122.09 40.48C122.09 40.7147 122.079 40.9493 122.058 41.184C122.058 41.4187 122.058 41.6747 122.058 41.952C122.058 42.2293 122.058 42.5387 122.058 42.88C122.058 43.584 122.058 44.3307 122.058 45.12C122.058 45.888 121.962 46.5173 121.77 47.008C121.599 47.52 121.311 47.872 120.906 48.064C120.5 48.256 120.02 48.2027 119.466 47.904C119.231 47.776 119.039 47.6053 118.89 47.392C118.762 47.1573 118.655 46.912 118.57 46.656C118.506 46.4 118.463 46.144 118.442 45.888C118.42 45.6107 118.399 45.3547 118.378 45.12C118.314 44.416 118.271 43.7653 118.25 43.168C118.25 42.5493 118.25 41.888 118.25 41.184V36.576ZM150.448 46.592C150.47 46.8053 150.448 47.008 150.384 47.2C150.342 47.328 150.278 47.4347 150.192 47.52C150.128 47.6053 150.043 47.6907 149.936 47.776C149.744 47.904 149.51 48.0213 149.232 48.128C149.062 48.1707 148.891 48.2027 148.72 48.224C148.571 48.2667 148.411 48.2667 148.24 48.224C147.899 48.2027 147.6 48.0747 147.344 47.84C146.982 47.5413 146.683 47.2107 146.448 46.848C146.342 46.6773 146.224 46.4853 146.096 46.272C145.968 46.0587 145.851 45.8347 145.744 45.6L142.192 38.848C142.022 38.848 141.851 38.8587 141.68 38.88C141.51 38.88 141.339 38.8907 141.168 38.912C140.72 38.9547 140.294 38.9653 139.888 38.944C139.504 38.9227 139.099 38.9227 138.672 38.944H138.064V44.736C138.064 44.9067 138.054 45.0667 138.032 45.216C138.032 45.3653 138.032 45.5253 138.032 45.696C138.032 45.8027 138.022 45.9413 138 46.112C138 46.2827 137.99 46.4427 137.968 46.592C137.926 46.8267 137.83 47.072 137.68 47.328C137.531 47.5627 137.328 47.7653 137.072 47.936C136.624 48.2133 136.08 48.288 135.44 48.16C135.163 48.096 134.896 47.9893 134.64 47.84C134.555 47.776 134.48 47.7013 134.416 47.616C134.352 47.5093 134.299 47.4027 134.256 47.296C134.214 47.1893 134.171 47.0827 134.128 46.976C134.107 46.848 134.075 46.7307 134.032 46.624C133.968 46.4107 133.936 46.208 133.936 46.016V27.84C133.936 27.712 133.936 27.584 133.936 27.456C133.958 27.3067 133.979 27.1787 134 27.072C134.022 26.8373 134.096 26.6027 134.224 26.368C134.288 26.112 134.395 25.9307 134.544 25.824C134.672 25.696 134.864 25.5893 135.12 25.504C135.398 25.3973 135.792 25.3547 136.304 25.376C137.264 25.3973 138.214 25.408 139.152 25.408C140.091 25.408 141.03 25.4293 141.968 25.472C142.587 25.5147 143.238 25.5893 143.92 25.696C144.624 25.7813 145.275 25.9413 145.872 26.176C146.256 26.3253 146.608 26.4747 146.928 26.624C147.334 26.8587 147.654 27.0827 147.888 27.296C148.635 27.9787 149.2 28.8 149.584 29.76C149.968 30.72 150.16 31.6907 150.16 32.672C150.16 33.824 149.883 34.88 149.328 35.84C148.795 36.8 147.931 37.5147 146.736 37.984C146.694 38.0267 146.63 38.0587 146.544 38.08C146.48 38.08 146.427 38.0907 146.384 38.112L149.328 44.032L149.616 44.544C149.659 44.6293 149.712 44.7253 149.776 44.832C149.84 44.9387 149.894 45.0453 149.936 45.152C150 45.2587 150.054 45.376 150.096 45.504C150.16 45.632 150.224 45.7493 150.288 45.856C150.352 46.1547 150.406 46.4 150.448 46.592ZM142.448 35.2C142.832 35.2 143.195 35.136 143.536 35.008C143.899 34.8587 144.219 34.6667 144.496 34.432C144.795 34.1973 145.04 33.9307 145.232 33.632C145.424 33.312 145.531 32.9707 145.552 32.608C145.638 31.5413 145.36 30.752 144.72 30.24C144.08 29.7067 143.238 29.4187 142.192 29.376C141.574 29.3333 140.891 29.312 140.144 29.312C139.419 29.312 138.726 29.312 138.064 29.312C138.086 30.1867 138.086 31.0827 138.064 32C138.064 32.896 138.064 33.9627 138.064 35.2H142.448ZM155.743 34.528C156.383 34.208 157.055 33.984 157.759 33.856C158.463 33.7067 159.156 33.6747 159.839 33.76C160.543 33.824 161.215 34.0053 161.855 34.304C162.495 34.5813 163.092 34.9867 163.647 35.52C164.201 36.0747 164.628 36.6827 164.927 37.344C165.225 38.0053 165.439 38.7413 165.567 39.552C165.652 40.1067 165.791 40.6187 165.983 41.088C166.175 41.5573 166.377 42.0267 166.591 42.496C166.825 42.9653 167.039 43.4347 167.231 43.904C167.444 44.3733 167.615 44.864 167.743 45.376C167.849 45.8667 167.807 46.3467 167.615 46.816C167.444 47.264 167.081 47.5413 166.527 47.648C166.207 47.712 165.897 47.6907 165.599 47.584C165.321 47.456 165.065 47.2853 164.831 47.072C164.596 46.8373 164.383 46.592 164.191 46.336C164.02 46.0587 163.86 45.8027 163.711 45.568C163.22 46.208 162.687 46.7093 162.111 47.072C161.535 47.4133 160.841 47.6373 160.031 47.744C159.348 47.8293 158.697 47.8507 158.079 47.808C157.46 47.7653 156.799 47.648 156.095 47.456C155.177 47.2213 154.42 46.816 153.823 46.24C153.247 45.6427 152.799 44.96 152.479 44.192C152.18 43.4027 152.02 42.56 151.999 41.664C151.977 40.768 152.084 39.8827 152.319 39.008C152.617 37.856 153.065 36.9173 153.663 36.192C154.26 35.4667 154.953 34.912 155.743 34.528ZM156.543 38.272C156.244 38.5707 156.009 38.9227 155.839 39.328C155.668 39.7333 155.561 40.16 155.519 40.608C155.497 41.056 155.54 41.504 155.647 41.952C155.753 42.4 155.924 42.7947 156.159 43.136C156.372 43.4347 156.735 43.6907 157.247 43.904C157.759 44.096 158.292 44.2133 158.847 44.256C159.487 44.2987 160.041 44.128 160.511 43.744C161.001 43.36 161.364 42.88 161.599 42.304C161.855 41.7067 161.972 41.0773 161.951 40.416C161.929 39.7333 161.748 39.1147 161.407 38.56C161.151 38.1547 160.809 37.856 160.383 37.664C159.977 37.472 159.54 37.376 159.071 37.376C158.601 37.3547 158.132 37.4293 157.663 37.6C157.215 37.7493 156.841 37.9733 156.543 38.272ZM183.812 33.728C184.004 34.0267 184.089 34.3467 184.068 34.688C184.068 35.1787 183.982 35.6053 183.812 35.968C183.769 36.0747 183.705 36.2133 183.62 36.384C183.556 36.5547 183.481 36.736 183.396 36.928C183.332 37.12 183.257 37.3013 183.172 37.472C183.086 37.6427 183.022 37.7707 182.98 37.856L182.916 38.016C182.617 38.6773 182.329 39.3173 182.052 39.936C181.774 40.5547 181.465 41.216 181.124 41.92C180.782 42.6027 180.452 43.2747 180.132 43.936C179.833 44.576 179.534 45.2053 179.236 45.824C179.15 45.9947 179.076 46.1653 179.012 46.336C178.948 46.4853 178.862 46.6453 178.756 46.816L177.22 50.112C176.942 50.6667 176.676 51.2107 176.42 51.744C176.185 52.2773 175.918 52.8107 175.62 53.344C175.556 53.4507 175.492 53.5467 175.428 53.632C175.385 53.7387 175.342 53.8453 175.3 53.952C175.15 54.208 174.926 54.4533 174.628 54.688C174.35 54.944 174.052 55.0827 173.732 55.104C173.156 55.1467 172.654 54.976 172.228 54.592C171.972 54.4427 171.769 54.2293 171.62 53.952C171.534 53.76 171.492 53.5147 171.492 53.216C171.513 53.088 171.524 52.96 171.524 52.832C171.545 52.7253 171.566 52.6187 171.588 52.512C171.63 52.4053 171.662 52.2987 171.684 52.192C171.705 52.0853 171.737 52 171.78 51.936C171.844 51.7653 171.897 51.68 171.94 51.68L174.276 46.624C174.169 46.3893 174.062 46.1547 173.956 45.92C173.849 45.664 173.753 45.44 173.668 45.248C173.39 44.5867 173.092 43.8933 172.772 43.168C172.473 42.4213 172.164 41.6853 171.844 40.96C171.524 40.2133 171.193 39.488 170.852 38.784C170.51 38.08 170.169 37.408 169.828 36.768C169.7 36.5547 169.582 36.3307 169.476 36.096C169.369 35.84 169.284 35.5947 169.22 35.36C169.156 35.104 169.134 34.848 169.156 34.592C169.177 34.336 169.273 34.08 169.444 33.824C169.614 33.504 169.838 33.28 170.116 33.152C170.393 33.0027 170.681 32.9387 170.98 32.96C171.3 32.96 171.598 33.024 171.876 33.152C172.153 33.28 172.377 33.4507 172.548 33.664C172.91 34.048 173.198 34.4747 173.412 34.944C173.625 35.4133 173.828 35.8933 174.02 36.384C174.425 37.2373 174.841 38.1333 175.268 39.072C175.694 40.0107 176.121 40.928 176.548 41.824L178.212 38.304C178.382 37.9627 178.532 37.632 178.66 37.312C178.809 36.992 178.958 36.6827 179.108 36.384C179.278 36.0213 179.438 35.648 179.588 35.264C179.758 34.88 179.95 34.528 180.164 34.208C180.206 34.1227 180.249 34.048 180.292 33.984C180.334 33.92 180.377 33.8453 180.42 33.76C180.612 33.504 180.782 33.3013 180.932 33.152C181.038 33.0667 181.124 33.0027 181.188 32.96C181.273 32.896 181.369 32.8533 181.476 32.832C181.625 32.7893 181.764 32.768 181.892 32.768C182.041 32.7467 182.18 32.7467 182.308 32.768C182.521 32.832 182.777 32.928 183.076 33.056C183.396 33.184 183.641 33.408 183.812 33.728Z" fill="#F1B253"/>
<defs>
<filter id="filter0_i_7_32" x="21.1128" y="23.202" width="43.2036" height="35.5797" filterUnits="userSpaceOnUse" color-interpolation-filters="sRGB">
<feFlood flood-opacity="0" result="BackgroundImageFix"/>
<feBlend mode="normal" in="SourceGraphic" in2="BackgroundImageFix" result="shape"/>
<feColorMatrix in="SourceAlpha" type="matrix" values="0 0 0 0 0 0 0 0 0 0 0 0 0 0 0 0 0 0 127 0" result="hardAlpha"/>
<feOffset dx="11" dy="3"/>
<feGaussianBlur stdDeviation="28"/>
<feComposite in2="hardAlpha" operator="arithmetic" k2="-1" k3="1"/>
<feColorMatrix type="matrix" values="0 0 0 0 0.945098 0 0 0 0 0.697255 0 0 0 0 0.32549 0 0 0 0.53 0"/>
<feBlend mode="normal" in2="shape" result="effect1_innerShadow_7_32"/>
</filter>
</defs>
</svg>
